<svg width="40" height="40" viewBox="0 0 40 40" fill="none" xmlns="http://www.w3.org/2000/svg">
  <!-- Background circle -->
  <circle cx="20" cy="20" r="18" fill="#00acc1" opacity="0.2"/>
  
  <!-- Main icon - briefcase/interview concept -->
  <path d="M12 15H28C29.1046 15 30 15.8954 30 17V27C30 28.1046 29.1046 29 28 29H12C10.8954 29 10 28.1046 10 27V17C10 15.8954 10.8954 15 12 15Z" 
        stroke="#00acc1" 
        stroke-width="2" 
        stroke-linecap="round" 
        stroke-linejoin="round" 
        fill="none"/>
  
  <!-- Handle -->
  <path d="M16 15V13C16 11.8954 16.8954 11 18 11H22C23.1046 11 24 11.8954 24 13V15" 
        stroke="#00acc1" 
        stroke-width="2" 
        stroke-linecap="round" 
        stroke-linejoin="round" 
        fill="none"/>
  
  <!-- AI Badge -->
  <circle cx="28" cy="13" r="5" fill="#0a1128"/>
  <circle cx="28" cy="13" r="4" fill="#00acc1"/>
  <text x="28" y="15.5" 
        font-family="Arial, sans-serif" 
        font-size="6" 
        font-weight="bold" 
        fill="#0a1128" 
        text-anchor="middle">AI</text>
</svg>
